<svg width="11" height="11" viewBox="0 0 11 11" fill="none" xmlns="http://www.w3.org/2000/svg">
<path d="M2.01523 2.46211C1.91426 2.48574 1.97871 2.48145 1.89492 2.49219C1.53613 2.56953 1.80254 2.63828 2.01523 2.46211ZM8.3252 2.60605C8.35098 2.58887 8.44121 2.50078 8.15977 2.41484C8.17695 2.50293 8.10176 2.49434 8.10176 2.54375C8.31016 2.73281 8.39609 3.06152 8.6625 3.13027C8.71406 2.89395 8.42617 2.77793 8.3252 2.60605ZM1.82402 2.39336C1.85625 2.58457 2.0002 2.19141 2.00234 2.05176C1.94648 2.08398 1.89063 2.11621 1.83262 2.14199C1.96797 2.21074 1.8498 2.28379 1.70371 2.39336C1.40723 2.76289 1.98086 2.10547 1.82402 2.39336ZM5.5 0C2.46211 0 0 2.46211 0 5.5C0 8.53574 2.46211 11 5.5 11C8.53789 11 11 8.53574 11 5.5C11 2.46211 8.53789 0 5.5 0ZM5.64609 1.84336L5.67188 1.85195C5.56875 1.98516 6.20898 2.37402 5.74922 2.40625C5.31953 2.52871 5.92969 2.29453 5.59668 2.33535C5.77285 2.09043 5.45703 2.08613 5.64609 1.84336ZM3.03789 2.1957C2.8832 2.0668 2.39766 2.37188 2.56738 2.29883C2.98848 2.1334 2.59531 2.31602 2.69414 2.51367C2.60391 2.70059 2.66406 2.32891 2.44062 2.5502C2.27949 2.58672 1.88418 2.95195 1.93359 2.84023C1.9207 3.01426 1.46309 3.22051 1.40078 3.51055C1.25039 3.9123 1.36426 3.49551 1.33633 3.33867C1.12148 3.06582 0.730469 3.80059 0.846484 4.09062C1.04199 3.74687 1.02695 4.0541 0.885156 4.20664C1.0291 4.4709 0.754102 4.81465 1.02695 5.01016C1.14727 5.03809 1.38789 4.60625 1.28262 5.05527C1.35566 4.66641 1.48457 5.14766 1.69297 5.04023C1.70586 5.24434 1.83262 5.1498 1.86055 5.39687C2.20859 5.37109 2.52656 5.95977 2.11191 6.07148C2.17422 6.0543 2.29668 6.16387 2.43848 6.08008C2.6791 6.27129 3.31289 6.29492 3.33008 6.76758C2.89395 6.97598 3.22266 7.54746 2.84453 7.75156C2.41055 7.68711 2.69629 8.28652 2.51367 8.21777C2.58672 8.64961 2.07539 8.16191 2.27305 8.40039C2.63613 8.62383 2.11406 8.57871 2.27734 8.74199C2.09473 8.70332 2.39121 9.08145 2.44062 9.22109C2.70273 9.64648 2.21504 9.12656 2.07109 8.98477C1.93359 8.70977 1.60918 8.1834 1.51895 7.75156C1.46738 7.12422 0.981836 6.70312 0.870117 6.09082C0.758398 5.74922 1.17734 5.20137 0.951758 5.01016C0.75625 4.85762 0.835742 4.33555 0.719727 4.06055C1.00977 2.80371 1.93145 1.74453 3.03789 1.11719C2.92402 1.20098 3.68887 0.900195 3.60078 0.973242C3.57715 1.02695 4.04766 0.769141 4.33125 0.730469C4.30117 0.734766 3.59434 0.988281 3.78984 0.953906C3.48691 1.10215 3.75977 1.01836 3.91016 0.943164C3.60938 1.16445 3.37734 1.10215 3.03574 1.29766C2.69199 1.38789 2.76289 1.74453 2.51797 1.92285C2.66191 1.94863 3.02285 1.55117 3.2334 1.41152C3.7168 1.17734 2.98848 1.83691 3.44824 1.55332C3.29355 1.69727 3.32578 1.92715 3.23125 1.9916C3.18398 1.97871 3.41816 2.10332 3.03789 2.1957ZM3.78984 1.20742C3.74043 1.27402 3.67168 1.41797 3.63086 1.32988C3.575 1.35781 3.55352 1.47813 3.44824 1.38145C3.51055 1.33633 3.575 1.22891 3.45254 1.29551C3.5084 1.23535 4.00684 1.06562 3.97891 1.00117C4.06699 0.945312 4.0584 0.917383 3.95742 0.951758C3.90586 0.93457 4.07988 0.788477 4.31191 0.769141C4.34414 0.769141 4.35703 0.790625 4.29902 0.78418C3.94883 0.891602 4.09922 0.861523 4.33555 0.78418C4.24531 0.835742 4.18301 0.850781 4.16797 0.874414C4.4043 0.788477 4.15508 0.936719 4.20879 0.925977C4.14219 0.960352 4.21953 0.971094 4.09062 1.02051C4.11426 1.00117 3.88008 1.16016 4.01973 1.11289C3.88438 1.2418 3.82422 1.24395 3.78984 1.20742ZM3.99609 1.51465C4.00039 1.3084 4.29688 1.17734 4.26035 1.1666C4.62559 0.994727 4.13359 1.17305 4.42148 1.01836C4.52891 1.00762 4.75664 0.663867 5.07246 0.642383C5.42051 0.537109 5.25937 0.648828 5.51719 0.55L5.46562 0.592969C5.42051 0.599414 5.47637 0.678906 5.31309 0.799219C5.2959 0.986133 5.00156 0.900195 5.14766 1.1C5.05312 0.964648 4.91133 1.0957 5.08965 1.10859C4.89844 1.25469 4.45371 1.28047 4.24102 1.52324C4.10352 1.7209 3.97676 1.65859 3.99609 1.51465ZM5.52363 2.20215C5.37754 2.55449 5.23574 2.15059 5.49355 2.08613C5.55801 2.12051 5.58379 2.13125 5.52363 2.20215ZM4.97363 1.49746C4.93066 1.33848 4.96504 1.42227 5.2207 1.34707C5.39687 1.47383 5.06387 1.55762 4.97363 1.49746ZM8.97402 7.80313C8.77207 7.45508 9.21895 7.13281 9.36934 6.84062C9.35 7.18223 9.30703 7.51953 8.97402 7.80313ZM9.73457 3.82637C9.51543 3.84355 9.31777 3.89512 9.12012 3.77051C8.66465 3.27207 9.20391 4.3334 9.3543 3.89941C9.8957 4.10566 9.3457 4.99512 9.0041 4.90273C8.81289 4.49023 8.57656 4.03691 8.15977 3.83496C8.47988 4.18945 8.63887 4.62559 8.98262 4.9457C9.00625 5.39258 9.45957 4.78242 9.43164 5.12832C9.47461 5.72344 8.75918 6.08008 8.88379 6.67734C9.1502 7.2209 8.37031 7.31973 8.4584 7.80742C8.14473 8.15762 7.80957 8.63027 7.24668 8.55508C7.24668 8.25859 7.09629 8.00723 7.06191 7.70215C6.75684 7.31543 7.38418 6.90078 6.99531 6.49687C6.54629 6.3959 7.0877 5.77715 6.62578 5.83516C6.34863 5.55801 5.94258 5.82656 5.54512 5.82871C5.04668 5.87598 4.5332 5.21641 4.75449 4.7502C4.57832 4.26465 5.31309 4.12285 5.33242 3.69531C5.68477 3.40098 6.18535 3.4375 6.6623 3.36875C6.62793 3.71035 6.98887 3.7125 7.26172 3.82637C7.41426 3.45684 7.88906 3.88652 8.21348 3.65234C8.3252 3.10664 7.89766 3.43535 7.65273 3.26133C7.35625 2.82734 8.28652 3.03789 8.18984 2.81016C7.82891 2.80801 8.03301 2.36543 7.77734 2.6125C8.00723 2.65332 7.73652 2.83379 7.74297 2.62754C7.39492 2.52656 7.73008 3.02285 7.55391 3.07012C7.28535 2.9584 7.41211 3.19688 7.44004 3.2334C7.32402 3.48477 7.18223 2.86387 6.85352 2.88105C6.52695 2.58242 6.72461 3.01641 7.0082 3.0873C6.94805 3.10449 7.04258 3.35156 6.96738 3.24629C6.7332 2.92402 6.28848 2.70918 6.02422 3.10449C5.99629 3.47402 5.24434 3.5793 5.36465 3.14746C5.18848 2.70059 5.91035 3.13457 5.84375 2.77793C5.37969 2.4707 5.97051 2.56953 6.12734 2.28164C6.48398 2.29238 6.14238 1.98945 6.30996 1.90137C6.29277 2.23008 6.58281 2.16777 6.8127 2.10547C6.75684 1.91641 6.9502 1.92285 6.83203 1.76602C7.36484 1.55332 6.42598 1.86484 6.61504 1.39863C6.38516 1.23965 6.51836 1.74883 6.61504 1.80254C6.62148 1.95938 6.48828 2.15273 6.30566 1.82402C6.03926 1.99805 6.06719 1.64785 6.05 1.68438C6.01992 1.54902 6.25195 1.54258 6.2541 1.30625C6.23477 1.15586 6.23906 1.07637 6.34648 1.06777C6.35508 1.08926 6.78691 1.0957 6.93945 1.27402C6.52266 1.19023 6.87715 1.34277 7.06406 1.42871C6.86426 1.27188 7.14355 1.42871 6.98027 1.25039C7.04473 1.26328 6.80195 1.00547 7.05117 1.23105C6.91582 1.06992 7.31543 1.11719 7.0791 0.996875C7.425 1.09355 7.2209 1.00547 7.0168 0.917383C6.45391 0.582227 8.01152 1.3707 7.37559 1.02051C7.78164 1.10859 6.50762 0.706836 7.0877 0.883008C6.86641 0.786328 7.08125 0.840039 7.28105 0.902344C6.92227 0.790625 6.38516 0.582227 6.40664 0.573633C6.53125 0.582227 6.65371 0.610156 6.77188 0.644531C7.13926 0.754102 6.6666 0.61875 6.76758 0.620898C8.03086 0.945312 9.13731 1.7918 9.80977 2.89824C9.9666 3.06367 10.3941 4.15723 10.1707 3.67168C10.2717 4.0584 10.2867 4.4752 10.3404 4.87051C10.2287 4.7459 10.1041 4.28613 9.99668 4.03047C9.95156 4.1293 9.9 3.89082 9.73457 3.82637Z" fill="#888888"/>
</svg>
