<svg width="29" height="22" viewBox="0 0 29 22" fill="none" xmlns="http://www.w3.org/2000/svg">
<path d="M19.7727 0C20.1223 0 20.4576 0.13888 20.7048 0.386087C20.952 0.633294 21.0909 0.968578 21.0909 1.31818V6.85454L27.9626 2.04318C28.0614 1.97392 28.1773 1.93311 28.2977 1.92521C28.4181 1.9173 28.5384 1.9426 28.6454 1.99836C28.7524 2.05411 28.8421 2.13817 28.9046 2.24137C28.9671 2.34458 29.0001 2.46297 29 2.58364V18.5073C29.0001 18.6279 28.9671 18.7463 28.9046 18.8495C28.8421 18.9527 28.7524 19.0368 28.6454 19.0925C28.5384 19.1483 28.4181 19.1736 28.2977 19.1657C28.1773 19.1578 28.0614 19.117 27.9626 19.0477L21.0909 14.2364V19.7727C21.0909 20.1223 20.952 20.4576 20.7048 20.7048C20.4576 20.952 20.1223 21.0909 19.7727 21.0909H1.31818C0.968578 21.0909 0.633294 20.952 0.386086 20.7048C0.138879 20.4576 0 20.1223 0 19.7727V1.31818C0 0.968578 0.138879 0.633294 0.386086 0.386087C0.633294 0.13888 0.968578 0 1.31818 0H19.7727ZM8.43636 6.3655C8.31481 6.36547 8.19698 6.40745 8.10282 6.48431C8.00866 6.56118 7.94395 6.66822 7.91964 6.78732L7.90909 6.89145V14.1968C7.90908 14.2822 7.92981 14.3663 7.96949 14.4419C8.00917 14.5175 8.06662 14.5824 8.1369 14.6309C8.20718 14.6794 8.28819 14.7101 8.37296 14.7203C8.45772 14.7306 8.54372 14.7201 8.62355 14.6898L8.71977 14.6424L14.4605 10.9897C14.5275 10.9467 14.5839 10.8891 14.6255 10.8213C14.6672 10.7534 14.6929 10.677 14.7009 10.5978C14.7089 10.5186 14.6989 10.4386 14.6716 10.3638C14.6444 10.289 14.6006 10.2213 14.5435 10.1658L14.4605 10.0999L8.71977 6.44591C8.63472 6.39319 8.53642 6.36444 8.43636 6.3655Z" fill="#F24E1E"/>
</svg>
