<svg width="40" height="42" viewBox="0 0 40 42" fill="none" xmlns="http://www.w3.org/2000/svg">
<path d="M40 20.7773C40 9.30241 31.0456 0 20 0C8.95437 0 0 9.30224 0 20.7773C0 31.1478 7.31375 39.7436 16.875 41.3023V26.7833H11.7969V20.7773H16.875V16.1998C16.875 10.9925 19.8609 8.11615 24.4292 8.11615C26.6175 8.11615 28.9062 8.52196 28.9062 8.52196V13.6351H26.3844C23.8997 13.6351 23.125 15.2368 23.125 16.88V20.7773H28.6719L27.7852 26.7833H23.125V41.3023C32.6863 39.7436 40 31.148 40 20.7773Z" fill="#1877F2"/>
<path d="M27.7852 26.7833L28.6719 20.7773H23.125V16.88C23.125 15.2366 23.8998 13.6351 26.3844 13.6351H28.9062V8.52196C28.9062 8.52196 26.6175 8.11615 24.4292 8.11615C19.8609 8.11615 16.875 10.9925 16.875 16.1998V20.7773H11.7969V26.7833H16.875V41.3023C17.9088 41.4706 18.9536 41.555 20 41.5547C21.0464 41.555 22.0912 41.4706 23.125 41.3023V26.7833H27.7852Z" fill="white"/>
</svg>
