<svg width="24" height="24" viewBox="0 0 24 24" fill="none" xmlns="http://www.w3.org/2000/svg">
<path d="M22 0H6C5.46957 0 4.96086 0.210714 4.58579 0.585786C4.21071 0.960859 4 1.46957 4 2V4H2C1.46957 4 0.960859 4.21071 0.585786 4.58579C0.210714 4.96086 0 5.46957 0 6V22C0 22.5304 0.210714 23.0391 0.585786 23.4142C0.960859 23.7893 1.46957 24 2 24H18C18.5304 24 19.0391 23.7893 19.4142 23.4142C19.7893 23.0391 20 22.5304 20 22V20H22C22.5304 20 23.0391 19.7893 23.4142 19.4142C23.7893 19.0391 24 18.5304 24 18V2C24 1.46957 23.7893 0.960859 23.4142 0.585786C23.0391 0.210714 22.5304 0 22 0ZM6 2H22V10.6725L19.9125 8.585C19.5375 8.21021 19.029 7.99968 18.4988 7.99968C17.9685 7.99968 17.46 8.21021 17.085 8.585L7.67125 18H6V2ZM18 22H2V6H4V18C4 18.5304 4.21071 19.0391 4.58579 19.4142C4.96086 19.7893 5.46957 20 6 20H18V22ZM9 7C9 6.60444 9.1173 6.21776 9.33706 5.88886C9.55682 5.55996 9.86918 5.30362 10.2346 5.15224C10.6001 5.00087 11.0022 4.96126 11.3902 5.03843C11.7781 5.1156 12.1345 5.30608 12.4142 5.58579C12.6939 5.86549 12.8844 6.22186 12.9616 6.60982C13.0387 6.99778 12.9991 7.39991 12.8478 7.76537C12.6964 8.13082 12.44 8.44318 12.1111 8.66294C11.7822 8.8827 11.3956 9 11 9C10.4696 9 9.96086 8.78929 9.58579 8.41421C9.21071 8.03914 9 7.53043 9 7Z" fill="#00A400"/>
</svg>
