<svg width="21" height="17" viewBox="0 0 21 17" fill="none" xmlns="http://www.w3.org/2000/svg">
<path d="M20.2692 16.2273C20.2692 16.4322 20.1871 16.6288 20.0409 16.7737C19.8947 16.9186 19.6964 17 19.4896 17H0.779586C0.572827 17 0.374536 16.9186 0.228335 16.7737C0.0821346 16.6288 0 16.4322 0 16.2273C0 16.0223 0.0821346 15.8258 0.228335 15.6809C0.374536 15.536 0.572827 15.4545 0.779586 15.4545H19.4896C19.6964 15.4545 19.8947 15.536 20.0409 15.6809C20.1871 15.8258 20.2692 16.0223 20.2692 16.2273ZM20.2692 1.54545V12.3636C20.2692 12.7735 20.105 13.1666 19.8126 13.4564C19.5202 13.7463 19.1236 13.9091 18.7101 13.9091H1.55917C1.14565 13.9091 0.749072 13.7463 0.456671 13.4564C0.164269 13.1666 0 12.7735 0 12.3636V1.54545C0 1.13557 0.164269 0.742482 0.456671 0.452653C0.749072 0.162824 1.14565 0 1.55917 0H18.7101C19.1236 0 19.5202 0.162824 19.8126 0.452653C20.105 0.742482 20.2692 1.13557 20.2692 1.54545ZM13.6427 6.95455C13.6427 6.82449 13.6096 6.69656 13.5464 6.58258C13.4832 6.46861 13.392 6.3723 13.2812 6.30256L8.99349 3.59801C8.87564 3.52379 8.73984 3.48231 8.60028 3.4779C8.46073 3.47349 8.32253 3.50632 8.20015 3.57294C8.07777 3.63957 7.97568 3.73755 7.90456 3.85665C7.83344 3.97575 7.7959 4.1116 7.79586 4.25V9.65909C7.7959 9.79749 7.83344 9.93334 7.90456 10.0524C7.97568 10.1715 8.07777 10.2695 8.20015 10.3361C8.32253 10.4028 8.46073 10.4356 8.60028 10.4312C8.73984 10.4268 8.87564 10.3853 8.99349 10.3111L13.2812 7.60653C13.392 7.53679 13.4832 7.44048 13.5464 7.32651C13.6096 7.21253 13.6427 7.0846 13.6427 6.95455Z" fill="#1877F2"/>
</svg>
